<svg xmlns="http://www.w3.org/2000/svg" width="648" height="968" viewBox="0 0 647.62 968.00">
<rect width="100%" height="100%" fill="#FCFAF7"/>
<title>Axonometric drawing of wooden block assembly</title>
<g stroke="#1F1A17" stroke-width="2.4" stroke-linejoin="round" stroke-linecap="round">
<polygon points="64.00,784.00 167.92,844.00 167.92,724.00 64.00,664.00" fill="#2FA899"/>
<polygon points="167.92,844.00 271.85,904.00 271.85,784.00 167.92,724.00" fill="#2FA899"/>
<polygon points="271.85,904.00 375.77,844.00 375.77,724.00 271.85,784.00" fill="#227F74"/>
<polygon points="167.92,724.00 271.85,784.00 375.77,724.00 271.85,664.00" fill="#45C4B4"/>
<polygon points="375.77,844.00 479.69,904.00 479.69,784.00 375.77,724.00" fill="#D7B88A"/>
<polygon points="479.69,904.00 583.62,844.00 583.62,724.00 479.69,784.00" fill="#B8925E"/>
<polygon points="64.00,664.00 167.92,724.00 167.92,604.00 64.00,544.00" fill="#2FA899"/>
<polygon points="167.92,724.00 271.85,664.00 271.85,544.00 167.92,604.00" fill="#227F74"/>
<polygon points="64.00,544.00 167.92,604.00 271.85,544.00 167.92,484.00" fill="#45C4B4"/>
<polygon points="271.85,664.00 375.77,724.00 375.77,604.00 271.85,544.00" fill="#D7B88A"/>
<polygon points="167.92,484.00 271.85,544.00 271.85,424.00 167.92,364.00" fill="#D7B88A"/>
<polygon points="479.69,784.00 583.62,724.00 583.62,604.00 479.69,664.00" fill="#B8925E"/>
<polygon points="167.92,364.00 271.85,424.00 271.85,304.00 167.92,244.00" fill="#D32F2F"/>
<polygon points="271.85,784.00 375.77,844.00 375.77,724.00 271.85,664.00" fill="#9B59D6"/>
<polygon points="375.77,844.00 479.69,784.00 479.69,664.00 375.77,724.00" fill="#7340A8"/>
<polygon points="167.92,604.00 271.85,664.00 271.85,544.00 167.92,484.00" fill="#9B59D6"/>
<polygon points="167.92,484.00 271.85,544.00 375.77,484.00 271.85,424.00" fill="#B57AE8"/>
<polygon points="479.69,664.00 583.62,604.00 583.62,484.00 479.69,544.00" fill="#B8925E"/>
<polygon points="271.85,424.00 375.77,484.00 375.77,364.00 271.85,304.00" fill="#D7B88A"/>
<polygon points="167.92,244.00 271.85,304.00 271.85,184.00 167.92,124.00" fill="#D32F2F"/>
<polygon points="167.92,124.00 271.85,184.00 375.77,124.00 271.85,64.00" fill="#F04545"/>
<polygon points="271.85,664.00 375.77,724.00 375.77,604.00 271.85,544.00" fill="#9B59D6"/>
<polygon points="375.77,724.00 479.69,664.00 479.69,544.00 375.77,604.00" fill="#7340A8"/>
<polygon points="271.85,544.00 375.77,604.00 479.69,544.00 375.77,484.00" fill="#B57AE8"/>
<polygon points="375.77,484.00 479.69,544.00 479.69,424.00 375.77,364.00" fill="#D7B88A"/>
<polygon points="479.69,544.00 583.62,484.00 583.62,364.00 479.69,424.00" fill="#B8925E"/>
<polygon points="375.77,364.00 479.69,424.00 583.62,364.00 479.69,304.00" fill="#EDD3AD"/>
<polygon points="271.85,304.00 375.77,364.00 375.77,244.00 271.85,184.00" fill="#D32F2F"/>
<polygon points="375.77,364.00 479.69,304.00 479.69,184.00 375.77,244.00" fill="#A32020"/>
<polygon points="271.85,184.00 375.77,244.00 479.69,184.00 375.77,124.00" fill="#F04545"/>
</g>
</svg>
